<svg width="1385" height="792" viewBox="0 0 1385 792" fill="none" xmlns="http://www.w3.org/2000/svg">
	<g clip-path="url(#clip0)">
		<path d="M1385 0C1385 0 1245 112.93 1071.64 121.387C898.276 129.844 860.874 40.794 691.557 33.829C522.239 26.864 530.326 149.246 380.215 159.2C230.104 169.154 189.67 66.667 91.1119 73.632C-7.44597 80.597 0.135401 121.391 0.135401 121.391V792L1385 792V0Z" fill="url(#paint0_linear)" />
		<path d="M1385 792H1065.55C1047.43 586.291 776.685 557.461 930.118 490C1093.88 418 1144.42 320 1099.94 220C1080.34 175.938 1066.63 143.911 1057.43 121.87C1062.06 121.782 1066.8 121.622 1071.64 121.386C1245 112.929 1385 0 1385 0V792Z" fill="url(#paint1_linear)" />
		<path d="M404.476 466C305.412 586 606.646 476 641.014 582C666.818 661.584 635.926 733.278 592.19 792H357.492C305.1 736.957 193.111 690.906 56.746 700C28.884 701.858 10.6513 696.822 0.138434 686.243V602.574C35.5182 507.121 145.802 359.508 220.504 242C249.445 196.472 280.377 178.041 309.512 178.047C404.522 178.066 480.289 374.162 404.476 466Z" fill="url(#paint2_linear)" />
		<path opacity="0.2" d="M883.113 209C875.576 209 869.466 215.044 869.466 222.5C869.466 229.956 875.576 236 883.113 236C890.65 236 896.759 229.956 896.759 222.5C896.759 215.044 890.65 209 883.113 209Z" fill="white" />
		<path opacity="0.2" d="M1043.84 716C1035.18 716 1028.17 722.94 1028.17 731.5C1028.17 740.06 1035.18 747 1043.84 747C1052.49 747 1059.51 740.06 1059.51 731.5C1059.51 722.94 1052.49 716 1043.84 716Z" fill="white" />
		<path opacity="0.2" d="M217.468 731C213.002 731 209.381 734.582 209.381 739C209.381 743.418 213.002 747 217.468 747C221.934 747 225.555 743.418 225.555 739C225.555 734.582 221.934 731 217.468 731Z" fill="white" />
		<g opacity="0.2">
			<path opacity="0.2" d="M1315.1 401.933C1315.29 402.652 1315.98 404.387 1318.16 404.961L1357.03 415.185C1359.19 415.754 1360.65 414.6 1361.17 414.078C1361.7 413.556 1362.85 412.109 1362.27 409.967L1351.86 371.757C1351.27 369.615 1349.54 368.931 1348.82 368.737C1348.1 368.543 1346.25 368.259 1344.67 369.816L1316.21 397.801C1314.62 399.371 1314.9 401.213 1315.1 401.933ZM1307.3 403.989C1306.21 399.977 1307.12 395.436 1310.51 392.099L1338.97 364.114C1345.7 357.493 1357.17 360.591 1359.65 369.701L1370.06 407.91C1372.54 417.02 1364.19 425.346 1355 422.927L1316.13 412.703C1311.49 411.484 1308.39 408.001 1307.3 403.989Z" fill="white" />
		</g>
		<path opacity="0.2" d="M114.868 189C117.989 188.992 121.08 189.596 123.964 190.777C126.847 191.959 129.464 193.694 131.665 195.883C133.878 198.06 135.632 200.65 136.827 203.502C138.021 206.354 138.632 209.413 138.623 212.5C138.632 215.587 138.021 218.646 136.827 221.498C135.633 224.351 133.878 226.941 131.665 229.118C129.464 231.307 126.847 233.042 123.963 234.223C121.08 235.405 117.989 236.008 114.868 236C111.747 236.008 108.656 235.404 105.773 234.223C102.889 233.041 100.272 231.306 98.0708 229.117C95.8581 226.94 94.1038 224.35 92.9095 221.498C91.7152 218.646 91.1047 215.587 91.1131 212.5C91.1045 209.413 91.7151 206.354 92.9094 203.502C94.1037 200.65 95.858 198.06 98.0708 195.883C100.272 193.694 102.889 191.959 105.773 190.777C108.656 189.596 111.747 188.992 114.868 189V189ZM114.868 229.286C119.367 229.281 123.679 227.51 126.86 224.364C130.041 221.217 131.83 216.95 131.835 212.5C131.831 208.049 130.043 203.782 126.861 200.635C123.68 197.488 119.367 195.718 114.868 195.714C110.369 195.718 106.055 197.487 102.874 200.635C99.6927 203.782 97.9037 208.049 97.8999 212.5C97.905 216.95 99.6944 221.217 102.875 224.364C106.056 227.511 110.369 229.281 114.868 229.286Z" fill="white" />
	</g>
	<defs>
		<linearGradient id="paint0_linear" x1="0.000632426" y1="784.08" x2="686.086" y2="-403.705" gradientUnits="userSpaceOnUse">
			<stop stop-color="#FFBA00" />
			<stop offset="1" stop-color="#FF6C00" />
		</linearGradient>
		<linearGradient id="paint1_linear" x1="883.235" y1="784.08" x2="1596.28" y2="336.856" gradientUnits="userSpaceOnUse">
			<stop stop-color="white" stop-opacity="0.161" />
			<stop offset="1" stop-color="white" stop-opacity="0" />
		</linearGradient>
		<linearGradient id="paint2_linear" x1="0.138381" y1="785.86" x2="613.432" y2="142.77" gradientUnits="userSpaceOnUse">
			<stop stop-color="white" stop-opacity="0.2" />
			<stop offset="1" stop-color="white" stop-opacity="0" />
		</linearGradient>
		<clipPath id="clip0">
			<rect width="1385" height="792" fill="white" transform="translate(1385 792) rotate(-180)" />
		</clipPath>
	</defs>
</svg>
